<?xml version="1.0" encoding="UTF-8" standalone="no"?>
<!DOCTYPE svg PUBLIC "-//W3C//DTD SVG 1.1//EN" "http://www.w3.org/Graphics/SVG/1.1/DTD/svg11.dtd">
<svg xmlns="http://www.w3.org/2000/svg" xmlns:xl="http://www.w3.org/1999/xlink" xmlns:dc="http://purl.org/dc/elements/1.1/" version="1.1" viewBox="0 0 851 978" width="851" height="978">
  <defs>
    <marker orient="auto" overflow="visible" markerUnits="strokeWidth" id="FilledArrow_Marker" stroke-linejoin="miter" stroke-miterlimit="10" viewBox="-3 -2 4 4" markerWidth="4" markerHeight="4" color="#212121">
      <g>
        <path d="M -1.728 0 L 0 .648 L 0 -.648 Z" fill="currentColor" stroke="currentColor" stroke-width="1"/>
      </g>
    </marker>
    <marker orient="auto" overflow="visible" markerUnits="strokeWidth" id="FilledArrow_Marker_2" stroke-linejoin="miter" stroke-miterlimit="10" viewBox="-1 -2 4 4" markerWidth="4" markerHeight="4" color="#212121">
      <g>
        <path d="M 1.728 0 L 0 -.648 L 0 .648 Z" fill="currentColor" stroke="currentColor" stroke-width="1"/>
      </g>
    </marker>
  </defs>
  <g id="Data_Contract_1" fill-opacity="1" fill="none" stroke="none" stroke-opacity="1" stroke-dasharray="none">
    <title>Data Contract 1</title>
    <g id="Data_Contract_1_bg">
      <title>bg</title>
      <g id="Graphic_518">
        <rect x="0" y="0" width="850.3937" height="977.9528" fill="white"/>
      </g>
    </g>
    <g id="Data_Contract_1_Layer_1">
      <title>Layer 1</title>
      <g id="Graphic_493">
        <path d="M 24.173228 807.874 L 386.8504 807.874 C 392.37324 807.874 396.8504 812.3512 396.8504 817.874 L 396.8504 953.7795 C 396.8504 959.3024 392.37324 963.7795 386.8504 963.7795 L 24.173228 963.7795 C 18.65038 963.7795 14.173228 959.3024 14.173228 953.7795 L 14.173228 817.874 C 14.173228 812.3512 18.65038 807.874 24.173228 807.874 Z" stroke="#424242" stroke-linecap="round" stroke-linejoin="round" stroke-dasharray="4.0,12.0" stroke-width="4"/>
      </g>
      <g id="Graphic_492">
        <path d="M 279.29134 609.4488 L 826.2205 609.4488 C 831.7433 609.4488 836.2205 613.926 836.2205 619.4488 L 836.2205 755.3543 C 836.2205 760.8772 831.7433 765.3543 826.2205 765.3543 L 279.29134 765.3543 C 273.7685 765.3543 269.29134 760.8772 269.29134 755.3543 L 269.29134 619.4488 C 269.29134 613.926 273.7685 609.4488 279.29134 609.4488 Z" stroke="#424242" stroke-linecap="round" stroke-linejoin="round" stroke-dasharray="4.0,12.0" stroke-width="4"/>
      </g>
      <g id="Graphic_230"/>
      <g id="Graphic_231"/>
      <g id="Line_483">
        <path d="M 425.19685 210.63165 L 425.19685 208.4252 C 425.19685 202.90235 429.674 198.4252 435.19685 198.4252 L 712.8346 198.4252 C 718.3575 198.4252 722.8346 193.94804 722.8346 188.4252 L 722.8346 170.07874" marker-start="url(#FilledArrow_Marker)" stroke="#212121" stroke-linecap="round" stroke-linejoin="round" stroke-width="5"/>
      </g>
      <g id="Line_462">
        <path d="M 205.5118 789.734 L 205.5118 772.73775 C 205.5118 772.7353 205.5118 772.7328 205.51181 772.7303 L 205.6394 602.0729 C 205.6394 602.0704 205.6394 602.0679 205.6394 602.0654 L 205.6394 583.0691" marker-end="url(#FilledArrow_Marker_2)" marker-start="url(#FilledArrow_Marker)" stroke="#212121" stroke-linecap="round" stroke-linejoin="round" stroke-width="5"/>
      </g>
      <g id="Line_457">
        <path d="M 552.62804 591.3093 L 552.47034 577.32794 C 552.46994 577.29314 552.4694 577.25835 552.4686 577.22355 L 552.18595 564.21125 C 552.1844 564.1389 552.1836 564.0665 552.1836 563.9941 L 552.1836 545.1027" marker-start="url(#FilledArrow_Marker)" stroke="#212121" stroke-linecap="round" stroke-linejoin="round" stroke-width="5"/>
      </g>
      <g id="Line_475">
        <path d="M 425.19685 210.63165 L 425.19685 208.4252 C 425.19685 202.90235 420.7197 198.4252 415.19685 198.4252 L 137.55905 198.4252 C 132.0362 198.4252 127.55905 193.94804 127.55905 188.4252 L 127.55905 170.07874" marker-start="url(#FilledArrow_Marker)" stroke="#212121" stroke-linecap="round" stroke-linejoin="round" stroke-width="5"/>
      </g>
      <g id="Line_474">
        <path d="M 425.19685 210.63165 L 425.19685 208.4252 C 425.19685 202.90235 420.7197 198.4252 415.19685 198.4252 L 335.98425 198.4252 C 330.4614 198.4252 325.98425 193.94804 325.98425 188.4252 L 325.98425 170.07874" marker-start="url(#FilledArrow_Marker)" stroke="#212121" stroke-linecap="round" stroke-linejoin="round" stroke-width="5"/>
      </g>
      <g id="Line_473">
        <path d="M 425.19685 210.63165 L 425.19685 208.4252 C 425.19685 202.90235 429.674 198.4252 435.19685 198.4252 L 514.40945 198.4252 C 519.9323 198.4252 524.40945 193.94804 524.40945 188.4252 L 524.40945 170.07874" marker-start="url(#FilledArrow_Marker)" stroke="#212121" stroke-linecap="round" stroke-linejoin="round" stroke-width="5"/>
      </g>
      <g id="Graphic_480">
        <rect x="283.46457" y="623.62204" width="170.07874" height="56.69291" fill="#008f00"/>
        <text transform="translate(288.46457 640.9685)" fill="#ebebeb">
          <tspan font-family="Urbanist" font-size="18" fill="#ebebeb" x="31.835368" y="17">Applications</tspan>
        </text>
      </g>
      <g id="Graphic_479">
        <rect x="467.71653" y="623.62204" width="170.07874" height="56.69291" fill="#008f00"/>
        <text transform="translate(472.71653 640.9685)" fill="#ebebeb">
          <tspan font-family="Urbanist" font-size="18" fill="#ebebeb" x="38.054368" y="17">Monitoring</tspan>
        </text>
      </g>
      <g id="Graphic_478">
        <rect x="651.9685" y="623.62204" width="170.07874" height="56.69291" fill="#008f00"/>
        <text transform="translate(656.9685 640.9685)" fill="#ebebeb">
          <tspan font-family="Urbanist" font-size="18" fill="#ebebeb" x="27.843868" y="17">Observability</tspan>
        </text>
      </g>
      <g id="Graphic_477">
        <rect x="283.46457" y="694.4882" width="170.07874" height="56.69291" fill="#008f00"/>
        <text transform="translate(288.46457 711.8346)" fill="#ebebeb">
          <tspan font-family="Urbanist" font-size="18" fill="#ebebeb" x="35.700868" y="17">Notification</tspan>
        </text>
      </g>
      <g id="Graphic_476">
        <rect x="467.71653" y="694.4882" width="170.07874" height="56.69291" fill="#008f00"/>
        <text transform="translate(472.71653 711.8346)" fill="#ebebeb">
          <tspan font-family="Urbanist" font-size="18" fill="#ebebeb" x="59.59137" y="17">Tools</tspan>
        </text>
      </g>
      <g id="Graphic_466">
        <rect x="28.346457" y="822.0472" width="170.07874" height="56.69291" fill="#521b93"/>
        <text transform="translate(33.346457 828.3937)" fill="#ebebeb">
          <tspan font-family="Urbanist" font-size="18" fill="#ebebeb" x="18.470368" y="17">Enterprise Data </tspan>
          <tspan font-family="Urbanist" font-size="18" fill="#ebebeb" x="31.592368" y="39">Governance</tspan>
        </text>
      </g>
      <g id="Graphic_465">
        <rect x="212.59842" y="822.0472" width="170.07874" height="56.69291" fill="#521b93"/>
        <text transform="translate(217.59842 828.3937)" fill="#ebebeb">
          <tspan font-family="Urbanist" font-size="18" fill="#ebebeb" x="18.470368" y="17">Enterprise Data </tspan>
          <tspan font-family="Urbanist" font-size="18" fill="#ebebeb" x="48.55737" y="39">Catalog</tspan>
        </text>
      </g>
      <g id="Graphic_464">
        <rect x="28.346457" y="892.9134" width="170.07874" height="56.69291" fill="#521b93"/>
        <text transform="translate(33.346457 899.2598)" fill="#ebebeb">
          <tspan font-family="Urbanist" font-size="18" fill="#ebebeb" x="5.798368" y="17">Enterprise Security </tspan>
          <tspan font-family="Urbanist" font-size="18" fill="#ebebeb" x="50.87487" y="39">&amp; Audit</tspan>
        </text>
      </g>
      <g id="Graphic_463">
        <rect x="212.59842" y="892.9134" width="170.07874" height="56.69291" fill="#521b93"/>
        <text transform="translate(217.59842 910.2598)" fill="#ebebeb">
          <tspan font-family="Urbanist" font-size="18" fill="#ebebeb" x="21.723868" y="17">Enterprise Ops</tspan>
        </text>
      </g>
      <g id="Graphic_455">
        <rect x="14.173228" y="226.77165" width="822.0472" height="340.15748" fill="#005493"/>
        <text transform="translate(19.173228 235.77165)" fill="#ebebeb">
          <tspan font-family="Urbanist" font-weight="bold" font-size="18" fill="#ebebeb" x="0" y="17">Open Data Contract Standard v2.2+</tspan>
        </text>
      </g>
      <g id="Graphic_472">
        <rect x="42.519685" y="113.38583" width="170.07874" height="56.69291" fill="#ffd41b"/>
        <text transform="translate(47.519685 130.73228)" fill="#001435">
          <tspan font-family="Urbanist" font-size="18" fill="#001435" x="20.279368" y="17">Data Engineers</tspan>
        </text>
      </g>
      <g id="Graphic_471">
        <rect x="240.94488" y="113.38583" width="170.07874" height="56.69291" fill="#ffd41b"/>
        <text transform="translate(245.94488 130.73228)" fill="#001435">
          <tspan font-family="Urbanist" font-size="18" fill="#001435" x="21.485368" y="17">Data Scientists</tspan>
        </text>
      </g>
      <g id="Graphic_470">
        <rect x="439.3701" y="113.38583" width="170.07874" height="56.69291" fill="#ffd41b"/>
        <text transform="translate(444.3701 119.73228)" fill="#001435">
          <tspan font-family="Urbanist" font-size="18" fill="#001435" x="28.248868" y="17">Data Product </tspan>
          <tspan font-family="Urbanist" font-size="18" fill="#001435" x="49.29537" y="39">Owners</tspan>
        </text>
      </g>
      <g id="Graphic_469">
        <rect x="637.7953" y="113.38583" width="170.07874" height="56.69291" fill="#ffd41b"/>
        <text transform="translate(642.7953 130.73228)" fill="#001435">
          <tspan font-family="Urbanist" font-size="18" fill="#001435" x="11.328868" y="17">Automation Tools</tspan>
        </text>
      </g>
      <g id="Graphic_442">
        <title>Data Contract</title>
        <path d="M 797.7645 533.9653 C 797.4323 534.2975 797.2441 534.7515 797.2441 535.2276 L 797.2441 542.126 L 804.1469 542.126 C 804.619 542.126 805.0715 541.9374 805.4037 541.6026 L 822.7769 524.1075 L 815.2607 516.59125 Z M 828.3034 514.5989 L 824.7712 511.0667 C 823.6777 509.9594 821.8922 509.9594 820.7849 511.0667 L 817.7676 514.084 L 825.2838 521.60027 L 828.3012 518.5829 C 829.4107 517.47785 829.4107 515.6951 828.3034 514.5989 Z M 793.7008 496.063 L 793.7008 510.2362 L 807.874 510.2362 Z M 793.7008 545.6693 C 791.9214 545.6377 790.3103 544.633 789.5064 543.0251 C 789.18805 542.37457 788.6206 542.30536 788.3858 542.30536 C 788.1511 542.30536 787.583 542.37457 787.2785 542.9836 L 786.4205 544.6866 C 786.127 545.2928 785.4072 545.6693 784.8425 545.6693 L 784.7207 545.6693 C 784.001 545.6139 783.392 545.1433 783.1705 544.4513 L 781.2992 538.87057 L 780.1255 542.4028 C 779.4722 544.3516 777.6452 545.6693 775.5912 545.6693 L 774.2126 545.6693 C 773.2304 545.6693 772.4409 544.8831 772.4409 543.89763 C 772.4409 542.91215 773.2304 542.126 774.2126 542.126 L 775.5856 542.126 C 776.1254 542.126 776.5935 541.77996 776.7593 541.2817 L 778.7801 535.2326 C 779.14 534.14247 780.1476 533.41166 781.2992 533.41166 C 782.4508 533.41166 783.4584 534.14524 783.8183 535.2387 L 785.3552 539.8483 C 787.5421 538.04896 791.3489 538.7687 792.6633 541.4118 C 792.8703 541.81594 793.28 542.0817 793.7008 542.1149 L 793.7008 534.4857 C 793.7008 533.542 794.0775 532.63656 794.7473 531.9711 L 807.874 518.9284 L 807.874 513.7795 L 793.7008 513.7795 C 791.7442 513.7795 790.1575 512.1928 790.1575 510.2362 L 790.1575 496.063 L 770.6693 496.063 C 767.7339 496.063 765.3543 498.44254 765.3543 501.37795 L 765.3543 547.44094 C 765.3543 550.37524 767.7339 552.7559 770.6693 552.7559 L 802.55905 552.7559 C 805.4945 552.7559 807.874 550.37635 807.874 547.44094 L 807.874 545.6693 Z" fill="white"/>
      </g>
      <g id="Graphic_449">
        <clipPath id="clip_path">
          <rect x="0" y="0" width="170.07874" height="70.86614"/>
        </clipPath>
        <text clip-path="url(#clip_path)" transform="translate(42.519685 325.98425)" fill="#ebebeb">
          <tspan font-family="Urbanist" font-style="italic" font-size="16" fill="#ebebeb" x="5" y="17">Name,</tspan>
          <tspan font-family="Urbanist" font-style="italic" font-size="16" fill="#ebebeb" x="5" y="36">Version,</tspan>
          <tspan font-family="Urbanist" font-style="italic" font-size="16" fill="#ebebeb" x="5" y="55">Descriptions…</tspan>
        </text>
      </g>
      <g id="Graphic_447">
        <clipPath id="clip_path_2">
          <rect x="0" y="0" width="170.07874" height="70.86614"/>
        </clipPath>
        <text clip-path="url(#clip_path_2)" transform="translate(42.519685 467.71653)" fill="#ebebeb">
          <tspan font-family="Urbanist" font-style="italic" font-size="16" fill="#ebebeb" x="5" y="17">History of stakeholders</tspan>
        </text>
      </g>
      <g id="Graphic_446">
        <clipPath id="clip_path_3">
          <rect x="0" y="0" width="170.07874" height="70.86614"/>
        </clipPath>
        <text clip-path="url(#clip_path_3)" transform="translate(439.3701 467.71653)" fill="#ebebeb">
          <tspan font-family="Urbanist" font-style="italic" font-size="16" fill="#ebebeb" x="5" y="17">Latency, retention, </tspan>
          <tspan font-family="Urbanist" font-style="italic" font-size="16" fill="#ebebeb" x="5" y="36">frequency…</tspan>
        </text>
      </g>
      <g id="Graphic_445">
        <clipPath id="clip_path_4">
          <rect x="0" y="0" width="170.07874" height="70.86614"/>
        </clipPath>
        <text clip-path="url(#clip_path_4)" transform="translate(439.3701 325.98425)" fill="#ebebeb">
          <tspan font-family="Urbanist" font-style="italic" font-size="16" fill="#ebebeb" x="5" y="17">Data quality rules,</tspan>
          <tspan font-family="Urbanist" font-style="italic" font-size="16" fill="#ebebeb" x="5" y="36">Data governance </tspan>
          <tspan font-family="Urbanist" font-style="italic" font-size="16" fill="#ebebeb" x="5" y="55">policies</tspan>
        </text>
      </g>
      <g id="Graphic_444">
        <clipPath id="clip_path_5">
          <rect x="0" y="0" width="170.07874" height="70.86614"/>
        </clipPath>
        <text clip-path="url(#clip_path_5)" transform="translate(240.94488 325.98425)" fill="#ebebeb">
          <tspan font-family="Urbanist" font-style="italic" font-size="16" fill="#ebebeb" x="5" y="17">Physical &amp; logical </tspan>
          <tspan font-family="Urbanist" font-style="italic" font-size="16" fill="#ebebeb" x="5" y="36">implementation</tspan>
        </text>
      </g>
      <g id="Graphic_443">
        <clipPath id="clip_path_6">
          <rect x="0" y="0" width="170.07874" height="70.86614"/>
        </clipPath>
        <text clip-path="url(#clip_path_6)" transform="translate(637.7953 467.71653)" fill="#ebebeb">
          <tspan font-family="Urbanist" font-style="italic" font-size="16" fill="#ebebeb" x="5" y="17">Room for custom </tspan>
          <tspan font-family="Urbanist" font-style="italic" font-size="16" fill="#ebebeb" x="5" y="36">needs</tspan>
        </text>
      </g>
      <g id="Graphic_488">
        <clipPath id="clip_path_7">
          <rect x="0" y="0" width="170.07874" height="70.86614"/>
        </clipPath>
        <text clip-path="url(#clip_path_7)" transform="translate(637.7953 325.98425)" fill="#ebebeb">
          <tspan font-family="Urbanist" font-style="italic" font-size="16" fill="#ebebeb" x="5" y="17">Internal or external </tspan>
          <tspan font-family="Urbanist" font-style="italic" font-size="16" fill="#ebebeb" x="5" y="36">costs associated to </tspan>
          <tspan font-family="Urbanist" font-style="italic" font-size="16" fill="#ebebeb" x="5" y="55">usage</tspan>
        </text>
      </g>
      <g id="Graphic_490">
        <clipPath id="clip_path_8">
          <rect x="0" y="0" width="170.07874" height="70.86614"/>
        </clipPath>
        <text clip-path="url(#clip_path_8)" transform="translate(240.94488 467.71653)" fill="#ebebeb">
          <tspan font-family="Urbanist" font-style="italic" font-size="16" fill="#ebebeb" x="5" y="17">Roles</tspan>
        </text>
      </g>
      <g id="Graphic_454">
        <rect x="42.519685" y="269.29134" width="170.07874" height="56.69291" fill="#76d6ff"/>
        <text transform="translate(47.519685 286.6378)" fill="#212121">
          <tspan font-family="Urbanist" font-size="18" fill="#212121" x="24.311368" y="17">Fundamentals</tspan>
        </text>
      </g>
      <g id="Graphic_453">
        <rect x="240.94488" y="269.29134" width="170.07874" height="56.69291" fill="#76d6ff"/>
        <text transform="translate(245.94488 286.6378)" fill="#212121">
          <tspan font-family="Urbanist" font-size="18" fill="#212121" x="1.4288677" y="17">Datasets &amp; Schema</tspan>
        </text>
      </g>
      <g id="Graphic_452">
        <rect x="439.3701" y="411.0236" width="170.07874" height="56.69291" fill="#76d6ff"/>
        <text transform="translate(444.3701 428.3701)" fill="#212121">
          <tspan font-family="Urbanist" font-size="18" fill="#212121" x="64.05537" y="17">SLA</tspan>
        </text>
      </g>
      <g id="Graphic_451">
        <rect x="439.3701" y="269.29134" width="170.07874" height="56.69291" fill="#76d6ff"/>
        <text transform="translate(444.3701 286.6378)" fill="#212121">
          <tspan font-family="Urbanist" font-size="18" fill="#212121" x="30.525868" y="17">Data Quality</tspan>
        </text>
      </g>
      <g id="Graphic_450">
        <rect x="42.519685" y="411.0236" width="170.07874" height="56.69291" fill="#76d6ff"/>
        <text transform="translate(47.519685 428.3701)" fill="#212121">
          <tspan font-family="Urbanist" font-size="18" fill="#212121" x="28.536868" y="17">Stakeholders</tspan>
        </text>
      </g>
      <g id="Graphic_448">
        <rect x="637.7953" y="411.0236" width="170.07874" height="56.69291" fill="#76d6ff"/>
        <text transform="translate(642.7953 428.3701)" fill="#212121">
          <tspan font-family="Urbanist" font-size="18" fill="#212121" x="49.25037" y="17">Custom</tspan>
        </text>
      </g>
      <g id="Graphic_487">
        <rect x="637.7953" y="269.29134" width="170.07874" height="56.69291" fill="#76d6ff"/>
        <text transform="translate(642.7953 286.6378)" fill="#212121">
          <tspan font-family="Urbanist" font-size="18" fill="#212121" x="54.36687" y="17">Pricing</tspan>
        </text>
      </g>
      <g id="Graphic_489">
        <rect x="240.94488" y="411.0236" width="170.07874" height="56.69291" fill="#76d6ff"/>
        <text transform="translate(245.94488 428.3701)" fill="#212121">
          <tspan font-family="Urbanist" font-size="18" fill="#212121" x="47.94087" y="17">Security</tspan>
        </text>
      </g>
      <g id="Graphic_441">
        <clipPath id="clip_path_9">
          <rect x="0" y="0" width="311.81102" height="56.69291"/>
        </clipPath>
        <text clip-path="url(#clip_path_9)" transform="translate(411.0236 907.0866)" fill="#424242">
          <tspan font-family="Urbanist" font-style="italic" font-size="16" fill="#424242" x="5" y="33">Enterprise-level consumers &amp; contributors</tspan>
        </text>
      </g>
      <g id="Graphic_468">
        <clipPath id="clip_path_10">
          <rect x="0" y="0" width="226.77165" height="56.69291"/>
        </clipPath>
        <text clip-path="url(#clip_path_10)" transform="translate(623.62204 28.346457)" fill="#424242">
          <tspan font-family="Urbanist" font-style="italic" font-size="16" fill="#424242" x="5" y="24">Contributors to the data </tspan>
          <tspan font-family="Urbanist" font-style="italic" font-size="16" fill="#424242" x="5" y="43">contract</tspan>
        </text>
      </g>
      <g id="Graphic_467">
        <clipPath id="clip_path_11">
          <rect x="0" y="0" width="233.42222" height="56.69291"/>
        </clipPath>
        <text clip-path="url(#clip_path_11)" transform="translate(566.9291 793.7008)" fill="#424242">
          <tspan font-family="Urbanist" font-style="italic" font-size="16" fill="#424242" x="5" y="33">Consumers of the data contract</tspan>
        </text>
      </g>
      <g id="Graphic_491">
        <path d="M 38.346457 99.2126 L 812.0472 99.2126 C 817.5701 99.2126 822.0472 103.68975 822.0472 109.2126 L 822.0472 174.25197 C 822.0472 179.77481 817.5701 184.25197 812.0472 184.25197 L 38.346457 184.25197 C 32.82361 184.25197 28.346457 179.77481 28.346457 174.25197 L 28.346457 109.2126 C 28.346457 103.68975 32.82361 99.2126 38.346457 99.2126 Z" stroke="#424242" stroke-linecap="round" stroke-linejoin="round" stroke-dasharray="4.0,12.0" stroke-width="4"/>
      </g>
      <g id="Line_494">
        <path d="M 557.0371 907.0866 C 545.56764 890.6763 520.8634 871.8616 467.71653 864.5669 C 446.5722 861.6648 422.97914 860.8678 398.8504 861.4304" stroke="#212121" stroke-linecap="round" stroke-linejoin="round" stroke-width="1"/>
      </g>
      <g id="Line_495">
        <path d="M 623.62204 55.06504 C 575.1536 56.22443 520.8806 60.23228 481.88976 70.86614 C 455.00024 78.19965 439.22783 87.63478 430.29603 97.2126" stroke="#212121" stroke-linecap="round" stroke-linejoin="round" stroke-width="1"/>
      </g>
      <g id="Line_496">
        <path d="M 752.8315 793.7008 C 768.2782 785.759 782.6279 776.71915 791.2761 767.3543" stroke="#212121" stroke-linecap="round" stroke-linejoin="round" stroke-width="1"/>
      </g>
    </g>
    <g id="Data_Contract_1_Logo">
      <title>Logo</title>
      <g id="Group_532">
        <g id="Group_517">
          <g id="Group_497">
            <g id="Graphic_502">
              <path d="M 79.88151 19.386 L 96.99199 19.386 C 106.09523 19.386 110.74928 23.62951 110.74928 31.842833 C 110.74928 37.112704 108.21678 39.85048 104.79477 41.62991 C 108.8326 43.204475 111.9129 46.42122 111.9129 52.78628 C 111.9129 62.23164 106.77947 67.29624 96.71829 67.29624 L 79.881505 67.29624 L 79.881505 19.386 Z M 96.1709 38.413167 C 99.79819 38.413167 101.37235 36.22319 101.37235 32.663922 C 101.37235 29.036634 99.72976 27.188778 96.23932 27.188778 L 89.32646 27.188778 L 89.32646 38.413167 Z M 96.51302 59.49387 C 100.61968 59.49387 102.46754 57.30349 102.46754 52.78628 C 102.46754 48.20065 100.27756 46.01027 96.37617 46.01027 L 89.32646 46.01027 L 89.32646 59.49387 L 96.51302 59.49387 Z" fill="#2e1354"/>
            </g>
            <g id="Graphic_501">
              <path d="M 115.6082 56.961367 L 115.6082 31.36346 L 125.39569 31.36346 L 125.39569 55.25036 C 125.39569 58.672374 127.17512 59.69914 129.84447 59.69914 C 132.51382 59.69914 134.63537 59.014495 136.34679 58.330254 L 134.90948 66.269476 C 132.78752 67.22782 129.70762 68.04931 126.42246 68.04931 C 119.44117 68.04931 115.6082 64.353196 115.6082 56.96137 Z" fill="#2e1354"/>
            </g>
            <g id="Graphic_500">
              <path d="M 139.294 56.82452 L 139.294 39.439934 L 132.03903 39.439934 L 132.03903 31.36346 L 139.294 31.36346 L 139.294 21.57638 L 148.87581 17.401295 L 148.87581 31.36346 L 159.55321 31.36346 L 159.55321 39.439934 L 148.87581 39.439934 L 148.87581 55.181935 C 148.87581 58.60395 150.31312 59.69914 152.91405 59.69914 C 155.72025 59.69914 157.43126 58.80922 159.41637 57.71403 L 157.8422 66.0642 C 155.51498 67.22782 153.25617 68.04931 149.28676 68.04931 C 142.78445 68.04931 139.294 64.28477 139.294 56.82452 Z" fill="#2e1354"/>
            </g>
            <g id="Graphic_499">
              <path d="M 160.85327 49.29584 C 160.85327 36.83901 168.31353 30.610794 177.69006 30.610794 C 187.0666 30.610794 194.52725 36.83901 194.52725 49.227417 C 194.52725 61.547 186.99817 68.04931 177.62163 68.04931 C 168.2451 68.04931 160.85327 61.61542 160.85327 49.29584 Z M 184.67134 49.29584 C 184.67134 41.972436 182.002 38.686864 177.69006 38.686864 C 173.37812 38.686864 170.70877 41.972436 170.70877 49.29584 C 170.70877 56.4824 173.37812 59.97284 177.69006 59.97284 C 182.002 59.97284 184.67134 56.4824 184.67134 49.29584 Z" fill="#2e1354"/>
            </g>
            <g id="Graphic_498">
              <path d="M 198.3594 56.961367 L 198.3594 21.57638 L 208.1469 17.401295 L 208.1469 55.25036 C 208.1469 58.672374 209.92632 59.69914 212.52725 59.69914 C 215.26502 59.69914 217.31815 59.014495 219.09799 58.330254 L 217.66067 66.269476 C 215.4703 67.22782 212.3904 68.04931 209.10523 68.04931 C 202.12395 68.04931 198.3594 64.353196 198.3594 56.96137 Z" fill="#2e1354"/>
            </g>
          </g>
          <g id="Group_503">
            <g id="Graphic_513">
              <path d="M 38.253162 17.012783 C 40.096835 16.936075 42.09443 16.782116 43.861496 17.08949 C 45.01372 17.24291 48.086934 19.163835 48.624883 19.240584 C 48.39421 19.624658 48.240814 20.00874 47.933435 20.392813 C 47.011316 21.77571 46.703954 23.31197 46.55054 24.925533 C 46.397124 26.615846 47.16528 30.9952 47.3954 31.609346 C 47.77947 32.531466 48.01014 33.68369 48.547627 34.528503 C 49.31578 35.757984 50.237944 37.063624 51.697446 37.601716 C 53.311013 38.293164 55.077937 38.75394 56.768253 39.215283 C 57.382994 39.3687 57.997735 39.599353 58.68923 39.599353 C 60.07213 39.522645 61.378276 39.291974 62.68456 39.06132 C 63.52942 38.907905 65.14293 36.756304 65.21969 35.83475 C 65.3731 36.06542 67.60145 42.595867 67.37078 43.7481 C 67.0634 46.20647 64.29757 49.587105 63.68287 50.509216 C 62.91471 49.04957 61.45516 48.972955 59.994966 48.972955 C 58.15129 48.972955 56.230305 48.742284 54.38663 49.049663 C 52.00487 49.35704 49.777167 50.20189 48.547627 52.58365 C 47.932886 53.65917 47.16473 54.658 46.47328 55.73347 C 46.31987 55.96414 45.013637 59.26746 45.167094 59.65149 C 46.01196 62.10986 47.16469 64.414876 48.701084 66.48922 C 49.16186 67.02725 49.00846 66.95 49.23912 67.48805 C 49.008446 67.795425 45.39785 70.56126 43.78428 70.71462 C 41.863303 70.945295 40.634463 70.945295 38.713475 70.48395 C 36.792495 70.02318 31.491574 67.18008 30.876884 67.10346 C 31.721747 65.25979 32.413144 63.95364 33.18189 61.8793 C 33.412562 61.18785 33.335306 60.26573 33.105183 59.57429 C 32.490443 57.80737 31.568923 56.11705 30.33939 54.810906 C 28.41841 52.81331 26.113953 51.353665 23.194244 51.2003 C 22.963577 51.2003 22.118722 51.123593 21.888055 51.046886 C 20.658579 50.73951 19.89046 51.661626 18.968899 52.122403 C 18.200743 52.50647 17.509253 53.04452 16.663888 53.58205 C 16.58718 53.12127 14.973575 49.89414 14.742908 48.51124 C 14.6662 47.8965 14.512241 47.359017 14.435533 46.74432 C 14.358826 45.8222 14.358826 44.82334 14.204867 43.901777 C 13.9742 41.67407 15.049734 39.82984 15.971794 37.909415 C 16.20246 37.44864 16.279168 36.987296 16.509823 36.373155 C 16.817197 36.603826 17.047851 36.987896 17.431938 37.14131 C 18.891583 37.75605 20.351094 38.524207 21.888043 38.67757 C 23.578355 38.830986 25.422032 38.75428 27.11221 37.986123 C 27.188918 37.986123 27.26563 37.83271 27.342877 37.83271 C 30.03192 38.06338 31.03079 35.835114 32.490434 34.29872 C 33.335297 33.453855 34.18075 32.455045 34.79545 31.37956 C 36.02493 29.151853 37.25382 26.923457 36.10164 24.234414 C 35.64086 23.082185 35.17952 22.006706 34.48807 20.930538 C 34.027294 20.23909 33.412554 19.701062 32.797754 19.086861 C 32.567623 18.857275 37.02375 17.090238 38.253137 17.01307 L 38.253162 17.012783 Z M 32.874943 44.2102 C 32.33691 44.056787 31.64546 43.902823 30.877348 43.749425 C 30.1859 43.59601 29.494452 43.59601 28.803004 43.518754 C 28.111556 43.442046 22.81064 43.442046 22.733336 43.134684 C 22.50267 43.59546 22.349263 43.97955 22.118596 44.440873 C 23.117418 44.59429 24.11619 44.59429 25.115055 44.82494 C 26.651315 45.055614 28.111514 45.51639 29.647774 45.669805 C 32.182904 45.900477 34.56466 46.745323 36.71562 48.128177 C 37.714446 48.74292 38.55929 49.741744 39.097384 50.740604 C 40.1729 52.81495 40.24961 55.27332 40.55703 57.578335 C 40.710445 58.73056 40.55703 59.88335 40.55703 61.035575 C 41.325185 61.18899 41.78651 60.88216 41.78651 60.19071 C 41.86322 58.500395 41.86322 56.73347 41.78651 55.043155 C 41.78651 54.275 41.55584 53.506895 41.40244 52.815446 C 41.940474 52.200706 42.40127 51.585965 42.862087 50.971774 C 44.09157 49.20485 45.62788 47.821954 47.625474 46.97645 C 49.00837 46.36171 50.468016 45.90093 51.927526 45.67026 C 53.38717 45.43959 54.84668 45.593554 56.30688 45.43959 C 56.69095 45.36288 57.228997 45.05552 57.382395 44.671434 C 57.68977 44.056694 57.151724 43.595917 56.53753 43.51921 C 55.538705 43.28854 54.53994 43.28854 53.54107 42.981177 C 52.00481 42.5204 50.31449 43.365246 48.931595 42.21302 C 47.77937 41.2909 46.473224 40.522704 45.62772 39.37048 C 42.938677 35.98999 42.323843 31.995222 42.323843 27.84653 C 42.323843 27.001662 42.17043 26.156217 42.016465 25.234102 C 41.01764 25.618175 40.86424 26.46358 40.786983 27.07778 C 40.479605 29.075373 40.402914 31.149717 40.172243 33.147447 C 40.01883 34.453635 39.711466 35.682568 39.711466 36.988714 C 39.711466 38.44836 38.63595 39.13981 37.944543 40.138533 C 37.253137 41.13726 36.10087 41.905457 35.102 42.75096 C 34.56505 43.13449 33.796893 43.59529 32.87485 44.21006 L 32.874942 44.2102 Z" fill="#2e1354"/>
            </g>
            <g id="Graphic_512">
              <path d="M 69.445774 25.77205 C 69.061705 27.001527 68.67762 28.307176 68.21629 29.536707 C 67.60155 31.072968 67.06407 32.60992 65.75792 33.685395 C 64.6057 34.53026 63.60683 35.606375 62.454046 36.297823 C 61.68589 36.7586 60.61037 36.7586 59.688254 36.912564 C 57.767274 37.219942 56.154264 36.0677 54.38733 35.606375 C 51.852203 34.991635 50.546065 32.917333 49.08641 30.996906 C 48.16429 29.76743 48.394963 28.845812 48.70234 27.69303 C 49.08641 26.15677 49.4705 24.543207 49.77786 22.929644 C 50.08524 21.469998 50.930084 20.471268 51.92895 19.472403 C 52.773816 18.704248 53.61927 17.936143 54.617995 17.39806 C 55.232736 17.013986 56.154256 17.167392 56.923 16.937278 C 59.765544 15.938456 61.9165 17.705434 64.29827 18.704206 C 65.373785 19.164987 66.37261 19.933682 67.37148 20.547883 C 67.524896 20.62459 67.75555 20.701302 67.83226 20.855257 C 68.13964 22.468267 68.75438 24.00508 69.445825 25.772143 L 69.445774 25.77205 Z M 58.382606 30.8423 C 59.38143 30.611634 60.68761 30.611634 61.45582 29.30604 C 61.68649 28.921967 61.916596 28.461173 61.99385 27.999852 C 62.22452 26.540206 62.60859 25.003393 61.225696 23.927913 C 60.53425 23.389885 59.53538 22.775684 58.92069 22.92909 C 57.53779 23.313164 56.30826 24.23528 55.07942 25.003435 C 54.772043 25.156854 54.69535 25.77159 54.618645 26.155664 C 54.618645 26.539738 54.849316 26.92382 54.926024 27.307893 C 55.156155 29.690207 56.38512 30.688937 58.38271 30.842436 L 58.382606 30.8423 Z" fill="#b6408d"/>
            </g>
            <g id="Graphic_511">
              <path d="M 29.879733 18.24218 C 30.955254 19.625076 32.414858 20.700555 33.106306 22.390868 C 33.64434 23.773764 34.105133 25.15666 34.412494 26.539556 C 34.719873 27.691785 33.797754 28.69065 33.413668 29.68938 C 32.72222 31.379696 31.416073 32.608536 30.109792 33.838068 C 29.956377 33.991483 26.114468 36.143083 25.730437 36.29644 C 23.656093 37.064594 21.581748 36.91118 19.738071 35.758406 C 18.508595 35.066958 17.202946 34.222145 16.434196 33.069364 C 15.51208 31.763175 14.513216 30.38032 14.436601 28.61326 C 14.436601 27.998518 14.667268 27.30707 14.820675 26.69228 C 15.051342 25.54005 15.12805 24.387268 15.358703 23.311788 C 15.666078 22.15956 15.819485 20.776663 16.510933 19.854548 C 17.586454 18.240985 18.508527 16.320558 20.65962 15.859224 C 21.96581 15.55185 23.348663 15.475151 24.73156 15.55185 C 25.423007 15.55185 26.114455 16.012631 26.805903 16.243298 C 27.267225 16.398334 29.41833 17.6273 29.879665 18.241998 L 29.879733 18.24218 Z M 23.349284 31.533052 C 25.19296 31.60976 26.422492 30.764897 27.11394 29.074677 C 27.421315 28.38323 27.72868 27.61503 28.189462 26.923583 C 28.573536 26.232135 28.650243 24.465208 28.112755 23.927124 C 28.036047 23.773705 27.80538 23.696457 27.651974 23.61975 C 26.576452 23.235676 25.424265 23.08172 24.271483 23.389083 C 22.350503 23.92711 20.967607 25.002646 20.353462 26.923073 C 20.122795 27.61452 19.969388 28.459333 20.122795 29.228084 C 20.506868 30.45756 22.196586 31.533095 23.349368 31.533095 L 23.349284 31.533052 Z" fill="#b6408d"/>
            </g>
            <g id="Graphic_510">
              <path d="M 67.44749 61.035896 C 67.37078 61.958015 67.29407 63.34091 66.98671 64.6465 C 66.833296 65.26124 66.29526 65.798725 65.91119 66.33682 C 65.603815 66.797594 65.219746 67.335644 64.83568 67.71971 C 63.83685 68.87194 60.148904 70.254835 59.68812 70.40876 C 59.07338 70.56217 58.45864 70.716135 57.844446 70.716135 C 57.30641 70.716135 54.310456 69.71731 53.77251 69.25649 C 52.69699 68.25766 51.621414 67.33551 50.699295 66.260034 C 50.084554 65.568586 49.54707 64.64647 49.08573 63.80166 C 48.547694 62.802836 47.856246 61.88068 47.549467 60.80521 C 47.318796 60.19047 47.626174 59.34556 47.70288 58.654114 C 47.77959 58.19334 48.08695 57.80925 48.16366 57.347926 C 48.240366 55.96503 48.855107 55.04291 49.93058 54.198106 C 50.54532 53.660073 51.082807 53.04588 51.85156 52.73846 C 53.38782 52.20043 54.924775 51.43227 56.6917 51.81634 C 57.53656 51.969756 58.45862 51.81634 59.304126 51.89305 C 62.30058 52.12372 64.52829 53.73672 66.06524 56.27241 C 67.21747 58.19284 67.4476 59.11495 67.4476 61.035795 L 67.44749 61.035896 Z M 59.611445 59.653 C 59.68815 58.42352 58.53593 57.11788 57.38374 56.81046 C 56.30822 56.50308 56.00084 57.4252 55.30939 57.809285 C 54.848616 58.11666 54.233875 58.50073 53.926497 58.96151 C 52.92767 60.49777 53.46572 62.572114 55.07872 63.494225 C 55.46279 63.724896 57.460486 63.955 57.92126 64.18567 C 58.07468 64.26238 58.459296 63.955 58.536004 63.724896 C 58.68942 63.26412 60.30293 61.80392 60.072264 61.189775 C 59.91885 60.65174 59.764886 60.11372 59.61149 59.652966 Z" fill="#b6408d"/>
            </g>
            <g id="Graphic_509">
              <path d="M 30.186736 65.49159 C 29.648707 67.489186 27.881725 67.87336 26.42208 68.564805 C 24.117068 69.64032 21.735307 69.179545 19.354234 68.795476 C 18.43212 68.64206 17.433254 68.41141 16.741806 67.95061 C 16.203778 67.56654 15.89694 66.644424 15.666285 65.95302 C 15.282211 64.72354 14.974837 63.49465 14.667462 62.265115 C 14.590755 61.881046 14.590755 61.42025 14.667462 60.95893 C 15.282203 57.96247 16.818556 55.658005 19.507599 54.19781 C 20.045627 53.89043 20.890495 53.81374 21.581943 53.89043 C 22.96484 54.121103 24.270985 54.428465 25.577266 54.96595 C 27.804975 55.88807 29.87932 57.19366 31.339518 59.11464 C 31.646356 59.49871 30.64753 64.10869 30.186753 65.49158 L 30.186736 65.49159 Z M 17.279337 67.48863 C 17.356045 67.48863 17.356045 67.56534 17.432756 67.56534 C 17.356049 67.56588 17.279337 67.48863 17.279337 67.48863 C 17.20263 67.48863 17.125918 67.41192 17.04867 67.33521 C 16.971963 67.33521 16.971963 67.25851 16.89525 67.25851 C 16.971959 67.25851 16.971959 67.33521 17.04867 67.33521 C 17.20263 67.33521 17.20263 67.41192 17.279337 67.48863 Z M 20.04513 59.345165 C 19.200262 60.42068 19.276974 62.725656 20.198549 63.801275 C 20.429216 64.10865 20.736577 64.49272 21.043416 64.49272 C 21.96553 64.64614 22.887093 64.72339 23.809208 64.8001 C 23.885916 64.8001 23.962627 64.72339 24.039875 64.72339 C 24.34725 64.416015 24.577904 64.031946 24.96199 63.801275 C 26.191467 62.879155 26.49825 61.49627 26.652303 60.11337 C 26.72901 59.652595 26.191522 59.114545 25.807435 58.653726 C 25.50006 58.269657 25.03928 57.6549 24.57796 57.6549 C 23.502437 57.6549 22.35025 57.34752 21.428135 58.26964 C 21.274716 58.423055 20.275906 59.037795 20.04524 59.34516 L 20.04513 59.345165 Z" fill="#b6408d"/>
            </g>
            <g id="Graphic_508">
              <path d="M 47.55038 43.134727 C 45.168613 44.90165 42.940913 46.4386 41.48071 48.819675 C 40.712555 48.819675 40.405193 48.28164 40.021065 47.513487 C 39.098945 45.43914 37.408637 44.28691 35.334293 43.59546 C 35.257585 43.59546 35.180878 43.518754 35.026914 43.36479 C 38.100127 42.365963 39.86705 39.9843 41.864645 37.525785 C 43.401454 39.677436 45.09177 41.75178 47.55014 43.134676 L 47.55038 43.134727 Z" fill="#b6408d"/>
            </g>
            <g id="Graphic_507">
              <path d="M 58.920546 24.61871 C 59.842665 25.079492 60.68747 26.53969 60.15003 27.461253 C 59.76596 28.1527 58.9978 28.767442 58.22905 29.074816 C 57.61431 29.305483 56.92286 28.690743 56.61548 27.999295 C 56.462065 27.69192 56.3081 27.461266 56.23141 27.23114 C 55.92403 26.232317 56.1547 24.849935 57.5376 24.235237 C 57.998376 24.00457 58.38246 24.926183 58.920495 24.618804 L 58.920546 24.61871 Z" fill="#2e1354"/>
            </g>
            <g id="Graphic_506">
              <path d="M 22.580807 28.46082 C 22.427388 27.692663 21.812652 26.924558 21.88936 26.23311 C 21.88936 25.77233 22.273433 25.157588 22.5041 24.69685 C 22.734767 24.08211 24.271027 23.467373 24.42508 23.467373 C 25.96134 23.236706 26.960205 24.005401 26.80684 25.618467 C 26.730133 26.693988 26.730133 27.846175 25.73132 28.614926 C 25.423404 28.845052 22.887806 29.843862 22.580942 28.460966 L 22.580807 28.46082 Z" fill="#2e1354"/>
            </g>
            <g id="Graphic_505">
              <path d="M 56.99971 58.270104 C 57.69116 59.11497 58.459355 58.654696 58.459355 59.88367 C 58.459355 60.57512 58.075286 62.34213 57.61449 62.49554 C 57.07646 62.57225 56.308304 62.418834 55.84757 62.034765 C 54.84874 61.26661 55.23283 59.96042 56.15495 59.0383 C 56.38508 58.73092 56.69244 58.50027 56.99981 58.270146 L 56.99971 58.270104 Z" fill="#2e1354"/>
            </g>
            <g id="Graphic_504">
              <path d="M 20.044572 61.727344 C 20.27524 61.18931 20.351947 59.26889 20.659313 58.80805 C 20.88998 58.347276 22.656907 59.42229 23.194438 59.65296 C 23.65522 59.88363 24.116553 59.960336 24.577334 60.2677 C 25.576156 60.959146 24.19326 62.72607 24.116553 62.72607 C 23.73248 62.879485 23.271686 63.18685 22.964324 63.03345 C 22.04221 62.72607 21.197396 62.26475 20.044614 61.72726 L 20.044572 61.727344 Z" fill="#2e1354"/>
            </g>
          </g>
          <g id="Group_514">
            <g id="Graphic_516">
              <path d="M 127.33923 20.6534 C 127.28592 21.29433 127.2326 22.255525 127.01897 23.162988 C 126.91233 23.59027 126.53837 23.963854 126.27142 24.33786 C 126.05777 24.658128 125.79082 25.032105 125.52387 25.299056 C 124.82962 26.099922 122.26628 27.061118 121.946 27.168103 C 121.51872 27.274735 121.09144 27.38175 120.66454 27.38175 C 120.29058 27.38175 118.2082 26.687505 117.8343 26.367208 C 117.08675 25.672963 116.33916 25.03201 115.69823 24.28449 C 115.27095 23.803893 114.89737 23.162965 114.5767 22.575775 C 114.20274 21.88153 113.72214 21.24058 113.50891 20.49306 C 113.34858 20.065777 113.56223 19.478517 113.61554 18.99792 C 113.66886 18.677652 113.8825 18.410689 113.93581 18.09004 C 113.98913 17.128844 114.41641 16.487915 115.16393 15.900726 C 115.59121 15.52676 115.9648 15.09986 116.49913 14.886184 C 117.56692 14.512219 118.6352 13.978304 119.86331 14.245256 C 120.45054 14.351888 121.09143 14.245256 121.6791 14.298572 C 123.76182 14.458902 125.31021 15.580036 126.37849 17.34249 C 127.17935 18.677305 127.33931 19.318228 127.33931 20.65333 L 127.33923 20.6534 Z M 121.89271 19.692205 C 121.94603 18.837642 121.14516 17.930143 120.34432 17.716467 C 119.59677 17.50282 119.38312 18.14375 118.90253 18.410712 C 118.58226 18.624359 118.15498 18.89131 117.94133 19.211578 C 117.24709 20.27937 117.62106 21.721165 118.7422 22.362087 C 119.00915 22.522418 120.39767 22.682355 120.71793 22.842685 C 120.82457 22.896002 121.0919 22.682355 121.14522 22.522418 C 121.25185 22.20215 122.37333 21.187221 122.21301 20.760356 C 122.10638 20.38639 121.99936 20.012431 121.89274 19.692181 L 121.89271 19.692205 Z" fill="#b6408d"/>
            </g>
            <g id="Graphic_515">
              <path d="M 120.0774 18.73101 C 120.558 19.31824 121.09194 18.998324 121.09194 19.852535 C 121.09194 20.333133 120.82499 21.56131 120.50471 21.667943 C 120.13074 21.72126 119.59683 21.614626 119.27659 21.347675 C 118.58235 20.81376 118.84931 19.90588 119.49024 19.264953 C 119.6502 19.051306 119.86383 18.890987 120.07747 18.731038 L 120.0774 18.73101 Z" fill="#2e1354"/>
            </g>
          </g>
        </g>
        <g id="Group_530">
          <g id="Graphic_519">
            <path d="M 246.06583 34.56669 L 246.06583 24.370103 L 240.94542 24.370103 L 240.94542 39.68738 L 256.2627 39.68738 L 256.2627 34.56669 Z" fill="#009ade"/>
          </g>
          <g id="Graphic_520">
            <path d="M 266.41536 14.173228 L 240.94542 14.173228 L 240.94542 21.809758 L 246.0219 21.809758 L 246.0219 19.29363 L 261.3389 19.29363 L 261.3389 34.56669 L 258.77883 34.56669 L 258.77883 39.68738 L 266.41536 39.68738 Z" fill="#003764"/>
          </g>
          <g id="Graphic_521">
            <path d="M 273.169 14.173294 L 281.02622 14.173294 L 281.02622 33.154257 L 292.32652 33.154257 L 292.32652 39.68724 L 273.169 39.68724 Z" fill="#003764"/>
          </g>
          <g id="Graphic_522">
            <path d="M 295.6813 14.173294 L 315.41267 14.173294 L 315.41267 20.706277 L 303.53853 20.706277 L 303.53853 23.884484 L 313.7353 23.884484 L 313.7353 29.976044 L 303.53853 29.976044 L 303.53853 39.687234 L 295.6813 39.687234 Z" fill="#003764"/>
          </g>
          <g id="Graphic_523">
            <path d="M 330.5533 14.261578 L 333.24595 14.261578 L 343.222 39.687237 L 340.61763 39.687237 L 337.5277 31.785858 L 325.96256 31.785858 L 322.91678 39.687237 L 320.3124 39.687237 Z M 326.71296 29.7112 L 336.689 29.7112 L 331.78926 16.689378 Z" fill="#009ade"/>
          </g>
          <g id="Graphic_524">
            <rect x="346.57675" y="14.261578" width="2.4277968" height="25.425658" fill="#009ade"/>
          </g>
          <g id="Graphic_525">
            <path d="M 256.34817 63.79997 C 256.77665 63.086194 257.06324 62.29639 257.1922 61.47394 C 257.3194 60.647325 257.3828 59.81216 257.3819 58.97582 L 259.44935 58.97582 C 259.40236 60.10608 259.25787 61.23017 259.01748 62.335574 C 258.77782 63.44459 258.33928 64.50103 257.7231 65.45375 L 261.75778 70.209 L 258.9656 70.209 L 256.5495 67.28021 C 255.61265 68.453154 254.4197 69.39604 253.0621 70.03661 C 251.68642 70.61414 250.20468 70.89591 248.71305 70.86365 C 247.67625 70.87171 246.64668 70.69069 245.6748 70.32949 C 244.76323 69.9933 243.92506 69.48444 243.2062 68.8308 C 242.49815 68.17916 241.93387 67.38693 241.54945 66.50477 C 241.13786 65.55358 240.93205 64.52612 240.9455 63.48979 C 240.93674 62.61632 241.10063 61.749726 241.42776 60.93978 C 241.7456 60.1652 242.18155 59.444534 242.72007 58.80344 C 243.26728 58.15383 243.89878 57.5802 244.59783 57.09776 C 245.31617 56.60051 246.07732 56.16814 246.87227 55.805756 C 246.19642 55.011934 245.58562 54.164956 245.0458 53.27304 C 244.49437 52.364846 244.208 51.3205 244.21906 50.25806 C 244.2057 49.53791 244.35901 48.824413 244.66703 48.173315 C 244.95275 47.58066 245.36424 47.05742 245.87284 46.640036 C 246.39747 46.216254 247.00048 45.90005 247.6474 45.709506 C 248.3459 45.49981 249.07176 45.39537 249.80105 45.39963 C 250.51933 45.3925 251.2325 45.52101 251.9031 45.7784 C 252.5161 46.012787 253.07774 46.36396 253.55688 46.812424 C 254.482 47.6919 255.00528 48.912733 255.00427 50.189176 C 255.02113 50.926635 254.88622 51.65969 254.6079 52.34282 C 254.35034 52.94149 253.98874 53.48979 253.53988 53.9623 C 253.06903 54.452214 252.54288 54.88579 251.972 55.25431 C 251.3743 55.64531 250.75405 56.03581 250.11123 56.42582 Z M 248.1127 57.287445 C 247.43538 57.60192 246.79418 57.98892 246.20033 58.44166 C 245.63146 58.8728 245.12168 59.37677 244.68404 59.94065 C 244.2645 60.48212 243.9224 61.07938 243.6676 61.71522 C 243.41738 62.33384 243.28868 62.99487 243.28853 63.66218 C 243.2757 64.424935 243.4224 65.181955 243.7192 65.884714 C 243.9902 66.5167 244.38918 67.08568 244.891 67.555795 C 245.4 68.025 245.9974 68.38808 246.64828 68.62382 C 247.3603 68.8828 248.1132 69.01121 248.87082 69.00289 C 250.10945 69.0274 251.33106 68.71163 252.40266 68.089956 C 253.45617 67.45447 254.39407 66.64464 255.17634 65.69503 Z M 252.52317 51.60197 C 252.9351 50.669775 252.86435 49.59493 252.33378 48.72478 C 251.74838 47.78168 250.70377 47.223153 249.59438 47.260087 C 249.17212 47.257756 248.7526 47.327763 248.35397 47.46707 C 247.9723 47.599844 247.61664 47.79805 247.30295 48.05282 C 246.99223 48.306263 246.7396 48.623496 246.5621 48.98305 C 246.3741 49.369134 246.27969 49.79408 246.28652 50.223454 C 246.2971 50.63984 246.3908 51.049907 246.5621 51.429564 C 246.7492 51.87301 246.974 52.29958 247.23405 52.70457 C 247.4977 53.11794 247.77905 53.51421 248.0781 53.893384 C 248.37634 54.272454 248.6406 54.59973 248.87083 54.875214 C 249.55978 54.46184 250.2546 54.00821 250.95528 53.51431 C 251.64473 53.034155 252.18748 52.37216 252.52315 51.60196 Z" fill="#009ade"/>
          </g>
          <g id="Graphic_526">
            <path d="M 273.16305 70.209 L 273.16305 45.399614 L 281.63983 45.399614 C 282.32878 45.399614 283.0064 45.41681 283.67268 45.45121 C 284.33223 45.484916 284.98854 45.56555 285.63664 45.69249 C 286.28 45.819006 286.90915 46.00944 287.5147 46.26095 C 288.14266 46.52468 288.7381 46.859935 289.28927 47.26008 C 290.106 47.84677 290.79724 48.59075 291.32242 49.44832 C 291.84745 50.302956 292.26962 51.21666 292.58013 52.17042 C 292.88742 53.11292 293.1066 54.0819 293.2348 55.064906 C 293.35537 55.96156 293.41862 56.865 293.42417 57.76971 C 293.4234 58.61055 293.3716 59.45056 293.2691 60.28513 C 293.16685 61.12941 292.99983 61.964575 292.76952 62.78324 C 292.54233 63.59229 292.23646 64.37714 291.8563 65.12657 C 291.47718 65.87302 290.99596 66.56303 290.4265 67.17672 C 289.8875 67.79077 289.2534 68.3143 288.54843 68.72731 C 287.8754 69.116096 287.15817 69.4227 286.4121 69.64054 C 285.6523 69.86158 284.8736 70.01155 284.08606 70.08851 C 283.28168 70.169034 282.46627 70.2092 281.63983 70.209 Z M 275.50638 68.21045 L 281.12296 68.21045 C 282.11955 68.214406 283.11527 68.15113 284.10335 68.02106 C 285.09903 67.87348 286.0612 67.5527 286.94623 67.07324 C 287.74864 66.68038 288.4456 66.10153 288.97908 65.384865 C 289.5071 64.673576 289.93062 63.8904 290.2368 63.059135 C 290.55034 62.20686 290.76986 61.32288 290.89144 60.42293 C 291.01497 59.54387 291.07835 58.65741 291.08113 57.76972 C 291.07983 56.85392 291.02226 55.93906 290.90874 55.03032 C 290.79924 54.12259 290.5794 53.231604 290.2541 52.377116 C 289.93627 51.546054 289.49487 50.76771 288.94477 50.068383 C 288.36365 49.343907 287.63552 48.750876 286.80843 48.32841 C 285.99064 47.913906 285.10226 47.65673 284.1895 47.57027 C 283.17137 47.45523 282.14755 47.39778 281.12293 47.39818 L 275.50638 47.39818 Z" fill="#009ade"/>
          </g>
          <g id="Graphic_527">
            <path d="M 294.90526 70.209 L 304.65675 45.399614 L 307.30995 45.399614 L 316.82046 70.209 L 314.40823 70.209 L 311.54834 62.42147 L 300.24627 62.42147 L 297.3172 70.209 Z M 301.0387 60.422916 L 310.7559 60.422916 L 305.89716 47.39817 Z" fill="#009ade"/>
          </g>
          <g id="Graphic_528">
            <path d="M 317.06144 45.399614 L 335.11702 45.399614 L 335.11702 47.39817 L 327.2609 47.39817 L 327.2609 70.209 L 324.91757 70.209 L 324.91757 47.39817 L 317.06144 47.39817 Z" fill="#009ade"/>
          </g>
          <g id="Graphic_529">
            <path d="M 334.46237 70.209 L 344.21386 45.399614 L 346.86707 45.399614 L 356.37757 70.209 L 353.96535 70.209 L 351.10546 62.42147 L 339.8034 62.42147 L 336.8743 70.209 Z M 340.59582 60.422916 L 350.313 60.422916 L 345.45427 47.39817 Z" fill="#009ade"/>
          </g>
        </g>
        <g id="Line_531">
          <line x1="226.77165" y1="14.173228" x2="226.77165" y2="70.86614" stroke="black" stroke-linecap="round" stroke-linejoin="round" stroke-width="2"/>
        </g>
      </g>
    </g>
  </g>
</svg>
